<?xml version="1.0" encoding="UTF-8" standalone="no"?>
<!-- Created with Inkscape (http://www.inkscape.org/) -->

<svg
   width="210mm"
   height="297mm"
   viewBox="0 0 210 297"
   version="1.1"
   id="svg5"
   inkscape:version="1.2.2 (732a01da63, 2022-12-09)"
   sodipodi:docname="gravure_v2_1.svg"
   xmlns:inkscape="http://www.inkscape.org/namespaces/inkscape"
   xmlns:sodipodi="http://sodipodi.sourceforge.net/DTD/sodipodi-0.dtd"
   xmlns="http://www.w3.org/2000/svg"
   xmlns:svg="http://www.w3.org/2000/svg">
  <sodipodi:namedview
     id="namedview7"
     pagecolor="#ffffff"
     bordercolor="#000000"
     borderopacity="0.25"
     inkscape:showpageshadow="2"
     inkscape:pageopacity="0.0"
     inkscape:pagecheckerboard="0"
     inkscape:deskcolor="#d1d1d1"
     inkscape:document-units="mm"
     showgrid="false"
     inkscape:zoom="2.932688"
     inkscape:cx="117.9805"
     inkscape:cy="406.79404"
     inkscape:window-width="1920"
     inkscape:window-height="1001"
     inkscape:window-x="-7"
     inkscape:window-y="-7"
     inkscape:window-maximized="1"
     inkscape:current-layer="layer1"
     showguides="false" />
  <defs
     id="defs2" />
  <g
     inkscape:label="Calque 1"
     inkscape:groupmode="layer"
     id="layer1">
    <path
       id="rect7997"
       style="fill:#000000;fill-opacity:1;stroke:#000000;stroke-width:0.100321;stroke-dasharray:none;stroke-opacity:1"
       d="M 0.050126139 0.050126139 L 0.050126139 7.0502157 L 62.449935 7.0502157 L 62.449935 0.050126139 L 0.050126139 0.050126139 z M 29.641085 1.859318 C 29.951972 1.859318 30.205015 1.9506208 30.399178 2.1332031 C 30.51476 2.2411304 30.601321 2.3961996 30.659111 2.598291 L 30.151131 2.7186971 C 30.121071 2.5878018 30.057915 2.4844289 29.961995 2.4086385 C 29.86725 2.33285 29.751617 2.2949504 29.615247 2.2949504 C 29.426861 2.2949504 29.27373 2.3621339 29.155843 2.4964884 C 29.039105 2.6308445 28.98066 2.8488127 28.98066 3.1496785 C 28.98066 3.4689172 29.038185 3.6963022 29.153776 3.8318075 C 29.269356 3.9673101 29.419997 4.0348958 29.604911 4.0348958 C 29.741294 4.0348958 29.858589 3.9918339 29.956828 3.9057048 C 30.055078 3.8195748 30.125419 3.6838777 30.168184 3.4990112 L 30.665828 3.6561076 C 30.589573 3.9317094 30.462446 4.1367014 30.284456 4.2710571 C 30.107808 4.4042482 29.882837 4.4705282 29.610079 4.4705282 C 29.272597 4.4705282 28.995369 4.3564338 28.778088 4.1279134 C 28.560821 3.898244 28.45201 3.5847123 28.45201 3.1874023 C 28.45201 2.7671098 28.5612 2.4411314 28.779639 2.2091675 C 28.998065 1.9760531 29.285104 1.859318 29.641085 1.859318 z M 31.471981 1.859318 L 31.83785 1.859318 L 31.201713 4.4705282 L 30.842562 4.4705282 L 31.471981 1.859318 z M 38.320142 1.859318 C 38.631029 1.859318 38.883052 1.9506208 39.077201 2.1332031 C 39.192782 2.2411304 39.279871 2.3961996 39.337651 2.598291 L 38.829671 2.7186971 C 38.799621 2.5878018 38.736458 2.4844289 38.640535 2.4086385 C 38.54578 2.33285 38.430676 2.2949504 38.294303 2.2949504 C 38.10592 2.2949504 37.952267 2.3621339 37.834383 2.4964884 C 37.717645 2.6308445 37.659717 2.8488127 37.659717 3.1496785 C 37.659717 3.4689172 37.717244 3.6963022 37.832833 3.8318075 C 37.948404 3.9673101 38.099044 4.0348958 38.283968 4.0348958 C 38.420353 4.0348958 38.53713 3.9918339 38.635368 3.9057048 C 38.733618 3.8195748 38.804478 3.6838777 38.847241 3.4990112 L 39.344885 3.6561076 C 39.268615 3.9317094 39.140986 4.1367014 38.962996 4.2710571 C 38.786188 4.4042482 38.561878 4.4705282 38.289136 4.4705282 C 37.951653 4.4705282 37.673921 4.3564338 37.456628 4.1279134 C 37.239521 3.898244 37.13055 3.5847123 37.13055 3.1874023 C 37.13055 2.7671098 37.239731 2.4411314 37.458179 2.2091675 C 37.676444 1.9760531 37.964171 1.859318 38.320142 1.859318 z M 24.145296 1.9022095 L 24.688416 1.9022095 L 25.705924 4.4276367 L 25.147819 4.4276367 L 24.92561 3.8540283 L 23.909652 3.8540283 L 23.700362 4.4276367 L 23.155693 4.4276367 L 24.145296 1.9022095 z M 25.976192 1.9022095 L 26.914636 1.9022095 C 27.126142 1.9022095 27.287377 1.9186268 27.398328 1.9507853 C 27.547409 1.9944253 27.674402 2.0719401 27.780733 2.1833293 C 27.887064 2.2947185 27.968151 2.4312063 28.023612 2.5931234 C 28.079092 2.75389 28.106812 2.9523956 28.106812 3.1889526 C 28.106812 3.396802 28.0808 3.5759559 28.02878 3.7263875 C 27.96522 3.910122 27.874846 4.0591858 27.756962 4.1728719 C 27.667982 4.2590004 27.547144 4.326179 27.395744 4.37441 C 27.282478 4.41001 27.131569 4.4276367 26.942025 4.4276367 L 25.976192 4.4276367 L 25.976192 1.9022095 z M 32.091064 1.9022095 L 33.028475 1.9022095 C 33.239981 1.9022095 33.401214 1.9186268 33.512166 1.9507853 C 33.661261 1.9944253 33.789288 2.0719401 33.895605 2.1833293 C 34.001936 2.2947185 34.083011 2.4312063 34.138485 2.5931234 C 34.193965 2.75389 34.221684 2.9523956 34.221684 3.1889526 C 34.221684 3.396802 34.195652 3.5759559 34.143652 3.7263875 C 34.080092 3.910122 33.989188 4.0591858 33.871318 4.1728719 C 33.782338 4.2590004 33.662027 4.326179 33.510616 4.37441 C 33.397351 4.41001 33.246443 4.4276367 33.056897 4.4276367 L 32.091064 4.4276367 L 32.091064 1.9022095 z M 35.388538 1.9022095 L 35.930623 1.9022095 L 36.948649 4.4276367 L 36.390544 4.4276367 L 36.168335 3.8540283 L 35.152893 3.8540283 L 34.94257 4.4276367 L 34.398417 4.4276367 L 35.388538 1.9022095 z M 26.489339 2.3295736 L 26.489339 4.0023397 L 26.872778 4.0023397 C 27.016096 4.0023397 27.119269 3.9941403 27.182837 3.9780518 C 27.266037 3.9573818 27.334698 3.9225314 27.389026 3.8731486 C 27.444506 3.8237686 27.489747 3.7428066 27.524418 3.6302694 C 27.559098 3.5165832 27.576611 3.3619503 27.576611 3.1667318 C 27.576611 2.9715143 27.559068 2.821646 27.524418 2.7171468 C 27.489738 2.6126475 27.441113 2.5312817 27.378691 2.4727173 C 27.316281 2.4141473 27.236912 2.3745271 27.140979 2.3538615 C 27.069319 2.3377815 26.929016 2.3295736 26.719816 2.3295736 L 26.489339 2.3295736 z M 32.604211 2.3295736 L 32.604211 4.0023397 L 32.987134 4.0023397 C 33.130451 4.0023397 33.234141 3.9941403 33.297709 3.9780518 C 33.380909 3.9573818 33.44957 3.9225314 33.503898 3.8731486 C 33.559378 3.8237686 33.604617 3.7428066 33.63929 3.6302694 C 33.67398 3.5165832 33.691484 3.3619503 33.691484 3.1667318 C 33.691484 2.9715143 33.67395 2.821646 33.63929 2.7171468 C 33.60461 2.6126475 33.555986 2.5312817 33.493563 2.4727173 C 33.431153 2.4141473 33.351777 2.3745271 33.255851 2.3538615 C 33.184191 2.3377815 33.043879 2.3295736 32.834688 2.3295736 L 32.604211 2.3295736 z M 24.410913 2.4913208 L 24.067265 3.4287313 L 24.761279 3.4287313 L 24.410913 2.4913208 z M 35.653638 2.4913208 L 35.310506 3.4287313 L 36.003487 3.4287313 L 35.653638 2.4913208 z M 0.050126139 8.0501546 L 0.050126139 50.550403 L 62.449935 50.550403 L 62.449935 8.0501546 L 0.050126139 8.0501546 z M 20.919653 20.774959 C 21.213175 20.774959 21.44263 20.879691 21.607983 21.089152 C 21.805042 21.337198 21.903573 21.748555 21.903573 22.323185 C 21.903573 22.896448 21.804353 23.308494 21.605916 23.559285 C 21.441941 23.765991 21.213175 23.869344 20.919653 23.869344 C 20.624765 23.869344 20.38703 23.756334 20.206519 23.530347 C 20.025996 23.302971 19.935734 22.898504 19.935734 22.316984 C 19.935734 21.746488 20.034953 21.33582 20.23339 21.085018 C 20.397377 20.878313 20.626143 20.774959 20.919653 20.774959 z M 32.952511 20.774959 L 33.4238 20.774959 L 33.4238 23.817668 L 32.842957 23.817668 L 32.842957 21.628654 C 32.630739 21.827091 32.380614 21.973853 32.092615 22.068937 L 32.092615 21.541838 C 32.244199 21.492228 32.408885 21.398521 32.586641 21.260718 C 32.764408 21.121536 32.886365 20.959616 32.952511 20.774959 z M 44.938342 20.774959 C 45.237376 20.774959 45.472332 20.855575 45.643209 21.016805 C 45.814085 21.178035 45.899524 21.37854 45.899524 21.618319 C 45.899524 21.754744 45.874719 21.884969 45.82511 22.008993 C 45.776879 22.131629 45.699708 22.260485 45.593599 22.395532 C 45.523329 22.485105 45.39654 22.613952 45.213261 22.782072 C 45.029982 22.950192 44.913538 23.061814 44.863928 23.116935 C 44.815697 23.172057 44.776423 23.2258 44.746106 23.278166 L 45.899524 23.278166 L 45.899524 23.817668 L 43.863472 23.817668 C 43.885521 23.613718 43.951667 23.420783 44.06191 23.238892 C 44.172153 23.055613 44.389884 22.813077 44.7151 22.511287 C 44.976927 22.267384 45.137478 22.10201 45.196724 22.015194 C 45.276651 21.895305 45.316614 21.776793 45.316614 21.65966 C 45.316614 21.530124 45.281474 21.430905 45.211194 21.362004 C 45.142292 21.291724 45.046518 21.256584 44.923873 21.256584 C 44.802606 21.256584 44.706143 21.293102 44.634485 21.366138 C 44.562827 21.439174 44.521486 21.560441 44.510461 21.72994 L 43.931685 21.672062 C 43.966136 21.352358 44.074322 21.122914 44.256213 20.983732 C 44.438114 20.84455 44.6655 20.774959 44.938342 20.774959 z M 56.894718 20.774959 C 57.179972 20.774959 57.408735 20.86591 57.580981 21.047811 C 57.722919 21.196639 57.793888 21.36476 57.793888 21.552173 C 57.793888 21.818134 57.648505 22.03036 57.357739 22.188826 C 57.531372 22.226033 57.669865 22.309413 57.773218 22.43894 C 57.877948 22.568476 57.930314 22.724892 57.930314 22.908162 C 57.930314 23.174123 57.833162 23.400811 57.638859 23.588224 C 57.444556 23.775637 57.202709 23.869344 56.913322 23.869344 C 56.639093 23.869344 56.411716 23.790788 56.231193 23.6337 C 56.05067 23.475225 55.945939 23.268519 55.917 23.013582 L 56.47924 22.945369 C 56.497154 23.088685 56.545386 23.19824 56.623934 23.274032 C 56.702482 23.349816 56.797567 23.38772 56.909188 23.38772 C 57.029077 23.38772 57.129674 23.342244 57.210978 23.251294 C 57.29366 23.160344 57.335002 23.037698 57.335002 22.883358 C 57.335002 22.737286 57.295727 22.62153 57.217179 22.536092 C 57.138631 22.450654 57.042857 22.407935 56.929858 22.407935 C 56.855444 22.407935 56.766561 22.422404 56.663208 22.451343 L 56.727287 21.977987 C 56.884383 21.982121 57.004273 21.948359 57.086955 21.876701 C 57.169637 21.803665 57.210978 21.707202 57.210978 21.587313 C 57.210978 21.485338 57.180661 21.404034 57.120028 21.3434 C 57.059394 21.282766 56.978779 21.25245 56.878182 21.25245 C 56.778963 21.25245 56.694214 21.286901 56.623934 21.355802 C 56.553654 21.424704 56.510935 21.525301 56.495776 21.657593 L 55.960409 21.566642 C 55.997607 21.383364 56.053426 21.237291 56.12784 21.128426 C 56.203632 21.018183 56.308363 20.932056 56.442033 20.870044 C 56.57708 20.806654 56.727984 20.774959 56.894718 20.774959 z M 20.919653 21.256584 C 20.849374 21.256584 20.786673 21.279321 20.731551 21.324797 C 20.67643 21.368894 20.63371 21.44882 20.603394 21.564575 C 20.563431 21.714781 20.543449 21.967663 20.543449 22.323185 C 20.543449 22.678718 20.561363 22.923321 20.597192 23.056991 C 20.633021 23.189271 20.677808 23.277477 20.731551 23.321574 C 20.786673 23.365671 20.849374 23.38772 20.919653 23.38772 C 20.989933 23.38772 21.052634 23.365671 21.107756 23.321574 C 21.162866 23.276099 21.205596 23.195483 21.235913 23.079728 C 21.275876 22.9309 21.295858 22.678718 21.295858 22.323185 C 21.295858 21.967663 21.277943 21.723738 21.242114 21.591447 C 21.206285 21.457777 21.16081 21.368894 21.105688 21.324797 C 21.051956 21.279321 20.989933 21.256584 20.919653 21.256584 z M 29.24266 25.753467 C 29.579665 25.753467 29.849075 25.857337 30.050879 26.065076 C 30.253719 26.2728 30.355253 26.561705 30.355253 26.931689 C 30.355253 27.29858 30.254737 27.585928 30.053979 27.793652 C 29.853238 28.000357 29.58536 28.103711 29.249377 28.103711 C 28.909242 28.103711 28.638292 28.00086 28.437541 27.795203 C 28.236784 27.588497 28.136784 27.304262 28.136784 26.942542 C 28.136784 26.711035 28.171491 26.516727 28.24117 26.359631 C 28.29316 26.243876 28.364097 26.140006 28.45356 26.048022 C 28.54406 25.956057 28.642529 25.887826 28.749666 25.843384 C 28.892179 25.783444 29.056457 25.753467 29.24266 25.753467 z M 31.772221 25.753467 C 32.056191 25.753467 32.277632 25.812911 32.43678 25.93175 C 32.596967 26.049572 32.700043 26.212882 32.745805 26.421643 L 32.286918 26.506909 C 32.254678 26.395288 32.193961 26.307437 32.1045 26.243359 C 32.01609 26.178249 31.905364 26.145691 31.772221 26.145691 C 31.570428 26.145691 31.409708 26.209251 31.29008 26.336377 C 31.171501 26.463501 31.112313 26.652136 31.112313 26.902234 C 31.112313 27.171985 31.172531 27.374557 31.29318 27.509949 C 31.413844 27.644308 31.572015 27.711487 31.76757 27.711487 C 31.86431 27.711487 31.960745 27.692886 32.057475 27.655676 C 32.155275 27.617436 32.238934 27.571446 32.308622 27.5177 L 32.308622 27.229346 L 31.779972 27.229346 L 31.779972 26.846423 L 32.77526 26.846423 L 32.77526 27.751794 C 32.678545 27.844814 32.538208 27.926978 32.354097 27.998291 C 32.17104 28.068571 31.985278 28.103711 31.797026 28.103711 C 31.557773 28.103711 31.349093 28.054101 31.171224 27.954883 C 30.993344 27.854631 30.859678 27.712004 30.770215 27.527002 C 30.680775 27.340978 30.636373 27.138911 30.636373 26.920837 C 30.636373 26.684178 30.686376 26.473824 30.786235 26.289868 C 30.88607 26.1059 31.032019 25.964812 31.224451 25.866638 C 31.371121 25.791188 31.553781 25.753467 31.772221 25.753467 z M 20.013765 25.792224 L 20.502108 25.792224 L 21.417814 28.064954 L 20.915519 28.064954 L 20.716048 27.548706 L 19.801375 27.548706 L 19.612756 28.064954 L 19.122864 28.064954 L 20.013765 25.792224 z M 21.667411 25.792224 L 22.116996 25.792224 L 23.053373 27.309961 L 23.053373 25.792224 L 23.482288 25.792224 L 23.482288 28.064954 L 23.01875 28.064954 L 22.096842 26.582874 L 22.096842 28.064954 L 21.667411 28.064954 L 21.667411 25.792224 z M 24.628988 25.792224 L 25.11733 25.792224 L 26.033553 28.064954 L 25.530741 28.064954 L 25.33127 27.548706 L 24.417114 27.548706 L 24.227979 28.064954 L 23.738086 28.064954 L 24.628988 25.792224 z M 34.074923 25.792224 L 34.53691 25.792224 L 34.53691 28.064954 L 34.074923 28.064954 L 34.074923 25.792224 z M 34.981844 25.792224 L 35.430912 25.792224 L 36.367289 27.309961 L 36.367289 25.792224 L 36.796204 25.792224 L 36.796204 28.064954 L 36.332666 28.064954 L 35.410758 26.582874 L 35.410758 28.064954 L 34.981844 28.064954 L 34.981844 25.792224 z M 37.284546 25.792224 L 38.025586 25.792224 C 38.306326 25.792224 38.489609 25.803591 38.574906 25.826331 C 38.705965 25.860441 38.815667 25.934852 38.904085 26.049573 C 38.992495 26.163261 39.036894 26.310538 39.036894 26.491406 C 39.036894 26.630921 39.011373 26.74824 38.960413 26.843323 C 38.909453 26.938413 38.84465 27.013338 38.765592 27.068115 C 38.687587 27.121855 38.607977 27.157515 38.526847 27.175085 C 38.416591 27.196785 38.256887 27.207642 38.047807 27.207642 L 37.746533 27.207642 L 37.746533 28.064954 L 37.284546 28.064954 L 37.284546 25.792224 z M 39.413098 25.792224 L 39.874569 25.792224 L 39.874569 27.023157 C 39.874569 27.218494 39.880659 27.345101 39.892139 27.402979 C 39.911889 27.495984 39.958342 27.570927 40.032182 27.627771 C 40.107082 27.683581 40.209118 27.711487 40.338106 27.711487 C 40.469166 27.711487 40.568162 27.685132 40.634729 27.632422 C 40.701319 27.578682 40.74109 27.51305 40.754618 27.435535 C 40.768128 27.358015 40.774772 27.229346 40.774772 27.049512 L 40.774772 25.792224 L 41.236759 25.792224 L 41.236759 26.98595 C 41.236759 27.258786 41.224522 27.451555 41.199552 27.564209 C 41.174592 27.676864 41.128173 27.771949 41.060543 27.849463 C 40.993963 27.926973 40.904692 27.98899 40.792342 28.035498 C 40.680002 28.080978 40.53306 28.103711 40.352059 28.103711 C 40.133621 28.103711 39.967793 28.078907 39.854415 28.029297 C 39.742075 27.978657 39.653294 27.913542 39.587764 27.83396 C 39.522229 27.75334 39.47886 27.6691 39.458057 27.581262 C 39.427887 27.451037 39.413098 27.258789 39.413098 27.004553 L 39.413098 25.792224 z M 41.559737 25.792224 L 43.377714 25.792224 L 43.377714 26.176697 L 42.700236 26.176697 L 42.700236 28.064954 L 42.238765 28.064954 L 42.238765 26.176697 L 41.559737 26.176697 L 41.559737 25.792224 z M 26.290902 25.810828 L 26.752889 25.810828 L 26.752889 27.682031 L 27.901139 27.682031 L 27.901139 28.064954 L 26.290902 28.064954 L 26.290902 25.810828 z M 29.24731 26.145691 C 29.056966 26.145691 28.903896 26.210801 28.78739 26.341028 C 28.670893 26.470219 28.612724 26.66556 28.612724 26.927039 C 28.612724 27.184372 28.672443 27.379724 28.792041 27.513049 C 28.911668 27.64534 29.063206 27.711487 29.24731 27.711487 C 29.43142 27.711487 29.582453 27.645842 29.699996 27.5146 C 29.818576 27.382308 29.877763 27.184386 29.877763 26.920837 C 29.877763 26.660407 29.820115 26.466073 29.704647 26.337927 C 29.590222 26.209769 29.43766 26.145691 29.24731 26.145691 z M 37.746533 26.176697 L 37.746533 26.821619 L 37.999231 26.821619 C 38.181267 26.821619 38.30321 26.809732 38.364583 26.785962 C 38.425963 26.762192 38.473397 26.724979 38.507727 26.674341 C 38.543107 26.623701 38.560954 26.564786 38.560954 26.497607 C 38.560954 26.414942 38.536473 26.346713 38.487573 26.292969 C 38.438683 26.239229 38.376945 26.205639 38.302055 26.1922 C 38.246915 26.18187 38.136213 26.176697 37.969775 26.176697 L 37.746533 26.176697 z M 20.252511 26.322424 L 19.943486 27.165784 L 20.567737 27.165784 L 20.252511 26.322424 z M 24.867733 26.322424 L 24.558708 27.165784 L 25.182959 27.165784 L 24.867733 26.322424 z M 21.151164 30.875118 L 21.638989 30.875118 L 21.638989 32.797481 L 22.015194 32.797481 L 22.015194 33.308044 L 21.638989 33.308044 L 21.638989 33.917826 L 21.07675 33.917826 L 21.07675 33.308044 L 19.836515 33.308044 L 19.836515 32.799548 L 21.151164 30.875118 z M 45.045829 30.875118 C 45.275961 30.875118 45.466131 30.939891 45.616337 31.069421 C 45.767921 31.197579 45.864384 31.384304 45.905725 31.629594 L 45.343486 31.691606 C 45.329705 31.575851 45.293871 31.490407 45.235999 31.435291 C 45.178121 31.380169 45.103018 31.352608 45.010689 31.352608 C 44.888044 31.352608 44.784002 31.40773 44.698564 31.517973 C 44.614503 31.628216 44.561449 31.85766 44.5394 32.206303 C 44.684094 32.035426 44.863929 31.949988 45.078902 31.949988 C 45.321436 31.949988 45.528837 32.042322 45.701086 32.226973 C 45.874719 32.41163 45.961536 32.650037 45.961536 32.942175 C 45.961536 33.252233 45.870585 33.50097 45.688684 33.688383 C 45.506783 33.875796 45.2732 33.969503 44.987952 33.969503 C 44.682028 33.969503 44.430535 33.850991 44.233476 33.613969 C 44.036417 33.375569 43.937887 32.985582 43.937887 32.444014 C 43.937887 31.888671 44.040551 31.488345 44.245878 31.243054 C 44.451205 30.997764 44.717862 30.875118 45.045829 30.875118 z M 32.31379 30.928861 L 33.849613 30.928861 L 33.849613 31.472498 L 32.754073 31.472498 L 32.663123 31.987195 C 32.792652 31.922427 32.92495 31.890043 33.059998 31.890043 C 33.317684 31.890043 33.53611 31.98375 33.715255 32.171163 C 33.894399 32.358576 33.983972 32.6018 33.983972 32.900834 C 33.983972 33.150259 33.911625 33.372813 33.766931 33.568494 C 33.569872 33.835827 33.29633 33.969503 32.946309 33.969503 C 32.666574 33.969503 32.438502 33.894393 32.262113 33.744194 C 32.085731 33.593988 31.980305 33.392098 31.945854 33.138546 L 32.52463 33.078601 C 32.541166 33.209514 32.590087 33.313557 32.671391 33.390727 C 32.752695 33.466519 32.846402 33.504415 32.952511 33.504415 C 33.073772 33.504415 33.176442 33.455494 33.260502 33.357654 C 33.344562 33.258435 33.386593 33.109607 33.386593 32.911169 C 33.386593 32.725141 33.344562 32.585952 33.260502 32.493624 C 33.17782 32.399917 33.069644 32.353064 32.935974 32.353064 C 32.769232 32.353064 32.619714 32.426789 32.487423 32.574239 L 32.016134 32.506026 L 32.31379 30.928861 z M 55.937671 30.928861 L 57.924113 30.928861 L 57.924113 31.350541 C 57.760127 31.511771 57.593383 31.743287 57.423885 32.045072 C 57.254387 32.346862 57.124851 32.667946 57.035278 33.008321 C 56.947084 33.347318 56.903676 33.650491 56.905054 33.917826 L 56.344881 33.917826 C 56.354527 33.498907 56.440659 33.071706 56.603263 32.636251 C 56.76725 32.200792 56.985669 31.811494 57.258521 31.468363 L 55.937671 31.468363 L 55.937671 30.928861 z M 21.07675 31.761886 L 20.380151 32.797481 L 21.07675 32.797481 L 21.07675 31.761886 z M 44.987952 32.377869 C 44.876331 32.377869 44.781935 32.421966 44.704765 32.51016 C 44.627595 32.596977 44.58901 32.725824 44.58901 32.8967 C 44.58901 33.085491 44.632418 33.231564 44.719234 33.334916 C 44.80605 33.436891 44.905275 33.487878 45.01689 33.487878 C 45.124377 33.487878 45.21395 33.445848 45.285608 33.361788 C 45.357266 33.277728 45.393095 33.139923 45.393095 32.948376 C 45.393095 32.751322 45.35451 32.607312 45.27734 32.516361 C 45.20017 32.424038 45.103707 32.377869 44.987952 32.377869 z M 0.050126139 51.550342 L 0.050126139 74.549972 L 62.449935 74.549972 L 62.449935 51.550342 L 0.050126139 51.550342 z M 28.991512 53.049992 C 29.275481 53.049992 29.497439 53.109422 29.656588 53.228276 C 29.816786 53.346083 29.919333 53.509395 29.965096 53.718168 L 29.506726 53.803434 C 29.474486 53.691813 29.413227 53.603963 29.323792 53.539884 C 29.235382 53.474789 29.124654 53.442216 28.991512 53.442216 C 28.789709 53.442216 28.628987 53.505786 28.509371 53.632902 C 28.390791 53.760026 28.331604 53.948651 28.331604 54.198759 C 28.331604 54.46851 28.391822 54.671082 28.512472 54.806474 C 28.63312 54.940833 28.791299 55.008012 28.986861 55.008012 C 29.083611 55.008012 29.180543 54.989411 29.277283 54.952201 C 29.375073 54.913961 29.458734 54.867971 29.52843 54.814225 L 29.52843 54.525871 L 28.999264 54.525871 L 28.999264 54.142948 L 29.995068 54.142948 L 29.995068 55.048319 C 29.898338 55.141339 29.758015 55.223508 29.573905 55.294816 C 29.390848 55.365096 29.205109 55.400236 29.016833 55.400236 C 28.777605 55.400236 28.568903 55.350626 28.391032 55.251408 C 28.213152 55.151156 28.079476 55.008529 27.990023 54.823527 C 27.900583 54.637497 27.855664 54.435436 27.855664 54.217362 C 27.855664 53.980699 27.905666 53.770356 28.005526 53.586393 C 28.105386 53.402425 28.251817 53.261348 28.444259 53.163163 C 28.590905 53.087713 28.773071 53.049992 28.991512 53.049992 z M 30.425533 53.088749 L 30.875118 53.088749 L 31.810978 54.606486 L 31.810978 53.088749 L 32.240409 53.088749 L 32.240409 55.361479 L 31.776872 55.361479 L 30.854447 53.879399 L 30.854447 55.361479 L 30.425533 55.361479 L 30.425533 53.088749 z M 32.727201 53.088749 L 33.571077 53.088749 C 33.761428 53.088749 33.906332 53.103217 34.006193 53.132157 C 34.140383 53.171427 34.255689 53.241195 34.351392 53.341447 C 34.447072 53.441699 34.519536 53.56469 34.569466 53.710417 C 34.619396 53.855111 34.644397 54.033917 34.644397 54.246818 C 34.644397 54.433887 34.621424 54.595132 34.574634 54.730509 C 34.517424 54.895873 34.435787 55.029715 34.329687 55.132035 C 34.249602 55.209545 34.140908 55.270012 34.004643 55.31342 C 33.9027 55.34546 33.766475 55.361479 33.595882 55.361479 L 32.727201 55.361479 L 32.727201 53.088749 z M 33.188672 53.473222 L 33.188672 54.978556 L 33.53387 54.978556 C 33.662856 54.978556 33.755717 54.971352 33.812923 54.956852 C 33.887823 54.938252 33.949549 54.906724 33.998442 54.862284 C 34.048372 54.817844 34.089188 54.744979 34.120398 54.643693 C 34.151608 54.541379 34.166907 54.402358 34.166907 54.226664 C 34.166907 54.050964 34.151598 53.916087 34.120398 53.822038 C 34.089198 53.727988 34.04531 53.6546 33.98914 53.601896 C 33.93297 53.549186 33.86205 53.513527 33.775716 53.494926 C 33.711236 53.480456 33.584678 53.473222 33.396411 53.473222 L 33.188672 53.473222 z M 0.050126139 75.54991 L 0.050126139 128.54978 L 62.449935 128.54978 L 62.449935 75.54991 L 0.050126139 75.54991 z M 27.468091 77.550305 C 27.805097 77.550305 28.074506 77.65418 28.27631 77.861914 C 28.479148 78.06965 28.580684 78.358529 28.580684 78.728528 C 28.580684 79.095414 28.480168 79.382757 28.279411 79.590491 C 28.078654 79.797196 27.810777 79.900549 27.474809 79.900549 C 27.134661 79.900549 26.863739 79.797713 26.662972 79.592041 C 26.462246 79.385344 26.362215 79.101114 26.362215 78.73938 C 26.362215 78.507871 26.396922 78.313566 26.466602 78.15647 C 26.518592 78.040715 26.589528 77.936842 26.678992 77.844861 C 26.769472 77.752881 26.867962 77.684663 26.975098 77.640222 C 27.117612 77.580282 27.281899 77.550305 27.468091 77.550305 z M 29.997652 77.550305 C 30.281622 77.550305 30.503061 77.609736 30.662211 77.728589 C 30.822397 77.84641 30.925473 78.009724 30.971236 78.218481 L 30.512349 78.303748 C 30.480109 78.192127 30.419391 78.104277 30.329932 78.040198 C 30.241522 77.975088 30.130796 77.942529 29.997652 77.942529 C 29.795859 77.942529 29.635138 78.006089 29.515511 78.133215 C 29.396933 78.260338 29.337744 78.448974 29.337744 78.699072 C 29.337744 78.968818 29.397964 79.171399 29.518612 79.306787 C 29.639276 79.441145 29.797448 79.508325 29.993001 79.508325 C 30.089751 79.508325 30.186176 79.489725 30.282906 79.452515 C 30.380706 79.414275 30.464367 79.368284 30.534054 79.314539 L 30.534054 79.026184 L 30.005404 79.026184 L 30.005404 78.643262 L 31.000692 78.643262 L 31.000692 79.548633 C 30.903972 79.641653 30.763639 79.723816 30.579529 79.795129 C 30.396456 79.865409 30.210724 79.900549 30.022457 79.900549 C 29.783215 79.900549 29.574523 79.850939 29.396655 79.751721 C 29.218784 79.651469 29.085111 79.508837 28.995646 79.32384 C 28.906206 79.13782 28.861804 78.93575 28.861804 78.717676 C 28.861804 78.480999 28.911808 78.270659 29.011666 78.086707 C 29.111516 77.90274 29.257448 77.761647 29.449882 77.663477 C 29.596551 77.588027 29.779213 77.550305 29.997652 77.550305 z M 33.327165 77.550305 C 33.66417 77.550305 33.933581 77.65418 34.135384 77.861914 C 34.338224 78.06965 34.439758 78.358529 34.439758 78.728528 C 34.439758 79.095414 34.339228 79.382757 34.138485 79.590491 C 33.937728 79.797196 33.669349 79.900549 33.333366 79.900549 C 32.993216 79.900549 32.722813 79.797713 32.522046 79.592041 C 32.321321 79.385344 32.220772 79.101114 32.220772 78.73938 C 32.220772 78.507871 32.256011 78.313566 32.325675 78.15647 C 32.377665 78.040715 32.448086 77.936842 32.537549 77.844861 C 32.628039 77.752881 32.727034 77.684663 32.834172 77.640222 C 32.97667 77.580282 33.140971 77.550305 33.327165 77.550305 z M 18.239197 77.589062 L 18.727539 77.589062 L 19.643245 79.861792 L 19.140951 79.861792 L 18.941479 79.345544 L 18.026807 79.345544 L 17.838188 79.861792 L 17.348295 79.861792 L 18.239197 77.589062 z M 19.892843 77.589062 L 20.342428 77.589062 L 21.278805 79.106799 L 21.278805 77.589062 L 21.707719 77.589062 L 21.707719 79.861792 L 21.244181 79.861792 L 20.322274 78.379712 L 20.322274 79.861792 L 19.892843 79.861792 L 19.892843 77.589062 z M 22.854419 77.589062 L 23.342761 77.589062 L 24.258984 79.861792 L 23.756173 79.861792 L 23.556702 79.345544 L 22.642546 79.345544 L 22.45341 79.861792 L 21.963517 79.861792 L 22.854419 77.589062 z M 34.796842 77.589062 L 35.25883 77.589062 L 35.25883 78.819995 C 35.25883 79.015332 35.264413 79.14194 35.275883 79.199817 C 35.295643 79.292837 35.342603 79.367765 35.416443 79.424609 C 35.491333 79.480419 35.593381 79.508325 35.722367 79.508325 C 35.853427 79.508325 35.951908 79.48196 36.018473 79.42926 C 36.085063 79.37552 36.125362 79.309888 36.138879 79.232373 C 36.152399 79.154863 36.159033 79.026184 36.159033 78.84635 L 36.159033 77.589062 L 36.621021 77.589062 L 36.621021 78.782788 C 36.621021 79.055639 36.608257 79.248393 36.583297 79.361047 C 36.558327 79.4737 36.512435 79.568786 36.444804 79.646301 C 36.378224 79.723811 36.288425 79.785827 36.176086 79.832336 C 36.063762 79.877806 35.917311 79.900549 35.73632 79.900549 C 35.51788 79.900549 35.352022 79.875735 35.238676 79.826135 C 35.126326 79.775495 35.037049 79.710379 34.971509 79.630798 C 34.906019 79.550178 34.863123 79.465935 34.842318 79.378101 C 34.812148 79.247877 34.796842 79.055624 34.796842 78.801392 L 34.796842 77.589062 z M 36.943998 77.589062 L 38.761458 77.589062 L 38.761458 77.973535 L 38.084497 77.973535 L 38.084497 79.861792 L 37.62251 79.861792 L 37.62251 77.973535 L 36.943998 77.973535 L 36.943998 77.589062 z M 39.059631 77.589062 L 39.800671 77.589062 C 40.081519 77.589062 40.264704 77.600429 40.349992 77.623169 C 40.481062 77.657279 40.590755 77.73169 40.679171 77.846411 C 40.767581 77.960092 40.811979 78.107378 40.811979 78.288245 C 40.811979 78.427756 40.786458 78.545076 40.735498 78.640161 C 40.684528 78.735241 40.619733 78.810177 40.540678 78.864954 C 40.462668 78.918694 40.383062 78.954354 40.301933 78.971924 C 40.191666 78.993624 40.03196 79.00448 39.822892 79.00448 L 39.521619 79.00448 L 39.521619 79.861792 L 39.059631 79.861792 L 39.059631 77.589062 z M 41.188184 77.589062 L 41.649654 77.589062 L 41.649654 78.819995 C 41.649654 79.015332 41.655237 79.14194 41.666707 79.199817 C 41.686467 79.292837 41.733428 79.367765 41.807267 79.424609 C 41.882157 79.480419 41.984207 79.508325 42.113192 79.508325 C 42.244252 79.508325 42.343261 79.48196 42.409814 79.42926 C 42.476404 79.37552 42.51619 79.309888 42.529704 79.232373 C 42.543224 79.154863 42.549858 79.026184 42.549858 78.84635 L 42.549858 77.589062 L 43.011845 77.589062 L 43.011845 78.782788 C 43.011845 79.055639 42.999598 79.248393 42.974638 79.361047 C 42.949668 79.4737 42.903257 79.568786 42.835628 79.646301 C 42.769048 79.723811 42.679753 79.785827 42.567428 79.832336 C 42.455088 79.877806 42.308133 79.900549 42.127144 79.900549 C 41.908718 79.900549 41.742845 79.875735 41.6295 79.826135 C 41.51715 79.775495 41.428389 79.710379 41.36285 79.630798 C 41.29737 79.550178 41.253945 79.465935 41.233142 79.378101 C 41.202972 79.247877 41.188184 79.055624 41.188184 78.801392 L 41.188184 77.589062 z M 43.334823 77.589062 L 45.152799 77.589062 L 45.152799 77.973535 L 44.475321 77.973535 L 44.475321 79.861792 L 44.013851 79.861792 L 44.013851 77.973535 L 43.334823 77.973535 L 43.334823 77.589062 z M 24.516333 77.607666 L 24.97832 77.607666 L 24.97832 79.47887 L 26.126571 79.47887 L 26.126571 79.861792 L 24.516333 79.861792 L 24.516333 77.607666 z M 27.472742 77.942529 C 27.282382 77.942529 27.129327 78.007639 27.012821 78.137866 C 26.89634 78.267053 26.838155 78.462399 26.838155 78.723877 C 26.838155 78.981225 26.897872 79.176563 27.017472 79.309888 C 27.137099 79.442178 27.288622 79.508325 27.472742 79.508325 C 27.656852 79.508325 27.807883 79.442692 27.925427 79.311438 C 28.044006 79.179147 28.103194 78.981225 28.103194 78.717676 C 28.103194 78.457228 28.045548 78.262908 27.930078 78.134766 C 27.815666 78.006609 27.663092 77.942529 27.472742 77.942529 z M 33.331816 77.942529 C 33.141455 77.942529 32.98787 78.007639 32.871379 78.137866 C 32.754881 78.267053 32.696712 78.462399 32.696712 78.723877 C 32.696712 78.981225 32.756445 79.176563 32.876029 79.309888 C 32.995657 79.442178 33.147695 79.508325 33.331816 79.508325 C 33.51591 79.508325 33.666958 79.442692 33.784501 79.311438 C 33.903081 79.179147 33.962268 78.981225 33.962268 78.717676 C 33.962268 78.457228 33.904621 78.262908 33.789152 78.134766 C 33.674739 78.006609 33.52215 77.942529 33.331816 77.942529 z M 39.521619 77.973535 L 39.521619 78.618457 L 39.774316 78.618457 C 39.956343 78.618457 40.078294 78.60657 40.139669 78.5828 C 40.201039 78.55903 40.248507 78.52182 40.282812 78.471179 C 40.318192 78.420539 40.336039 78.361625 40.336039 78.294446 C 40.336039 78.211766 40.311549 78.143547 40.262659 78.089807 C 40.213759 78.036067 40.15204 78.002478 40.07714 77.989038 C 40.02201 77.978708 39.911297 77.973535 39.744861 77.973535 L 39.521619 77.973535 z M 18.477942 78.119263 L 18.168917 78.962622 L 18.793168 78.962622 L 18.477942 78.119263 z M 23.093164 78.119263 L 22.784139 78.962622 L 23.40839 78.962622 L 23.093164 78.119263 z M 20.919653 92.775216 C 21.213175 92.775216 21.442622 92.87995 21.607983 93.089408 C 21.805042 93.337455 21.903573 93.748801 21.903573 94.323442 C 21.903573 94.896701 21.804353 95.308739 21.605916 95.559542 C 21.441933 95.766247 21.213175 95.8696 20.919653 95.8696 C 20.624757 95.8696 20.387038 95.756601 20.206519 95.530603 C 20.025996 95.303227 19.935734 94.898771 19.935734 94.31724 C 19.935734 93.746737 20.034953 93.336077 20.23339 93.085274 C 20.397377 92.878569 20.626135 92.775216 20.919653 92.775216 z M 32.952511 92.775216 L 33.4238 92.775216 L 33.4238 95.817924 L 32.842957 95.817924 L 32.842957 93.62891 C 32.630739 93.827347 32.380622 93.974109 32.092615 94.069194 L 32.092615 93.542094 C 32.244199 93.492485 32.408877 93.398778 32.586641 93.260974 C 32.764408 93.121793 32.886365 92.95987 32.952511 92.775216 z M 20.919653 93.25684 C 20.849374 93.25684 20.786673 93.279578 20.731551 93.325053 C 20.67643 93.36915 20.63371 93.449077 20.603394 93.564832 C 20.563431 93.715034 20.543449 93.967908 20.543449 94.323442 C 20.543449 94.678972 20.561363 94.923577 20.597192 95.057247 C 20.633021 95.189538 20.677808 95.277733 20.731551 95.32183 C 20.786673 95.365927 20.849374 95.387976 20.919653 95.387976 C 20.989933 95.387976 21.052634 95.365927 21.107756 95.32183 C 21.162874 95.276355 21.205596 95.195737 21.235913 95.079985 C 21.275876 94.931157 21.295858 94.678972 21.295858 94.323442 C 21.295858 93.967908 21.277943 93.723995 21.242114 93.591703 C 21.206285 93.458034 21.16081 93.36915 21.105688 93.325053 C 21.051948 93.279578 20.989933 93.25684 20.919653 93.25684 z M 13.891659 125.32982 C 14.145215 125.32982 14.33602 125.38557 14.463717 125.49673 C 14.592332 125.60789 14.659857 125.75609 14.666288 125.94167 L 14.258044 125.95975 C 14.240589 125.85594 14.203267 125.78153 14.14539 125.73651 C 14.088431 125.69058 14.00236 125.66778 13.887524 125.66778 C 13.769014 125.66778 13.676052 125.69196 13.608988 125.74065 C 13.56581 125.77188 13.544393 125.81385 13.544393 125.86622 C 13.544393 125.91399 13.564432 125.9547 13.604854 125.98869 C 13.656301 126.03187 13.781589 126.07671 13.980025 126.12357 C 14.178461 126.17042 14.32465 126.21928 14.419275 126.26981 C 14.514818 126.31942 14.589233 126.38769 14.642517 126.47497 C 14.696719 126.56132 14.724166 126.6687 14.724166 126.79639 C 14.724166 126.91215 14.691839 127.02038 14.627531 127.12144 C 14.563223 127.22249 14.472271 127.29766 14.354679 127.34727 C 14.237088 127.39596 14.090382 127.42065 13.914913 127.42065 C 13.659519 127.42065 13.463719 127.3615 13.326835 127.24391 C 13.189951 127.1254 13.108014 126.95314 13.081372 126.72715 L 13.478247 126.68891 C 13.502133 126.82212 13.550365 126.91996 13.622941 126.98243 C 13.696436 127.0449 13.795025 127.07596 13.919047 127.07596 C 14.050419 127.07596 14.149525 127.0484 14.21567 126.99328 C 14.282734 126.93724 14.315922 126.87184 14.315922 126.79743 C 14.315922 126.74966 14.302027 126.70958 14.273547 126.67651 C 14.245987 126.64251 14.197123 126.61294 14.127303 126.58814 C 14.079531 126.5716 13.970665 126.54203 13.800708 126.49977 C 13.582061 126.44557 13.428465 126.37931 13.340271 126.3003 C 13.216249 126.18914 13.154236 126.05346 13.154236 125.89361 C 13.154236 125.79071 13.183175 125.69488 13.241052 125.60577 C 13.299848 125.51574 13.38391 125.44695 13.493233 125.4001 C 13.603475 125.35324 13.736401 125.32982 13.891659 125.32982 z M 22.476664 125.32982 C 22.72379 125.32982 22.924873 125.40286 23.079211 125.54893 C 23.17108 125.63528 23.239983 125.75931 23.285917 125.921 L 22.881807 126.01763 C 22.857922 125.9129 22.808197 125.83022 22.731946 125.76958 C 22.656614 125.70895 22.564398 125.67863 22.455994 125.67863 C 22.306248 125.67863 22.184864 125.73238 22.091158 125.83986 C 21.998371 125.94735 21.951632 126.12162 21.951632 126.36231 C 21.951632 126.61771 21.997739 126.79961 22.089608 126.90802 C 22.181476 127.01642 22.300736 127.07028 22.447725 127.07028 C 22.55613 127.07028 22.649724 127.03583 22.727812 126.96693 C 22.8059 126.89803 22.861769 126.78979 22.89576 126.64188 L 23.291085 126.76746 C 23.230452 126.98794 23.129738 127.15193 22.988261 127.25942 C 22.847702 127.36598 22.668669 127.4191 22.45186 127.4191 C 22.183604 127.4191 21.963114 127.32751 21.790401 127.14469 C 21.617689 126.96096 21.531502 126.71015 21.531502 126.39229 C 21.531502 126.05605 21.61832 125.79548 21.791951 125.6099 C 21.965583 125.42341 22.19371 125.32982 22.476664 125.32982 z M 35.660356 125.32982 C 35.958009 125.32982 36.195782 125.42215 36.374007 125.6068 C 36.553151 125.79146 36.642725 126.04841 36.642725 126.3773 C 36.642725 126.70343 36.554414 126.959 36.377108 127.14366 C 36.199802 127.3274 35.962775 127.4191 35.66604 127.4191 C 35.36563 127.4191 35.126594 127.32751 34.949288 127.14469 C 34.771982 126.96096 34.683154 126.70866 34.683154 126.38712 C 34.683154 126.18133 34.714103 126.00844 34.775655 125.8688 C 34.821589 125.76591 34.884234 125.67358 34.963241 125.59182 C 35.043166 125.51005 35.130099 125.44942 35.224723 125.40992 C 35.350583 125.35663 35.495911 125.32982 35.660356 125.32982 z M 44.548702 125.32982 C 44.848193 125.32982 45.085851 125.42203 45.26132 125.60577 C 45.436789 125.78859 45.524353 126.04491 45.524353 126.37472 C 45.524353 126.54927 45.50018 126.70234 45.451489 126.83464 C 45.414742 126.93569 45.3556 127.03353 45.274756 127.12816 C 45.374892 127.19981 45.483759 127.25695 45.601351 127.29921 L 45.451489 127.58704 C 45.389937 127.56867 45.329418 127.54375 45.270622 127.5116 C 45.25776 127.50517 45.16744 127.44528 44.99932 127.33228 C 44.86703 127.39016 44.720324 127.4191 44.559554 127.4191 C 44.249039 127.4191 44.005753 127.32751 43.829366 127.14469 C 43.653897 126.96188 43.566333 126.70544 43.566333 126.37472 C 43.566333 126.04491 43.654529 125.78859 43.830916 125.60577 C 44.007304 125.42203 44.246455 125.32982 44.548702 125.32982 z M 15.067297 125.36444 L 16.56488 125.36444 L 16.56488 125.70602 L 15.475024 125.70602 L 15.475024 126.15406 L 16.489433 126.15406 L 16.489433 126.4946 L 15.475024 126.4946 L 15.475024 127.04444 L 16.603638 127.04444 L 16.603638 127.38447 L 15.067297 127.38447 L 15.067297 125.36444 z M 16.950903 125.36444 L 17.809249 125.36444 C 18.02514 125.36444 18.182124 125.38299 18.279504 125.41973 C 18.377804 125.45556 18.456353 125.5197 18.515149 125.61249 C 18.573945 125.70527 18.602999 125.81139 18.602999 125.93081 C 18.602999 126.0824 18.558786 126.2078 18.469674 126.30702 C 18.380561 126.40532 18.247004 126.46733 18.069698 126.49305 C 18.157892 126.5445 18.230814 126.601 18.287773 126.66255 C 18.34565 126.7241 18.422936 126.8336 18.520317 126.9907 L 18.76733 127.38447 L 18.279504 127.38447 L 17.984432 126.94522 C 17.879702 126.78813 17.808043 126.68902 17.769458 126.6486 C 17.730873 126.60726 17.690163 126.57958 17.646985 126.56488 C 17.603807 126.54927 17.535018 126.54111 17.441313 126.54111 L 17.35863 126.54111 L 17.35863 127.38447 L 16.950903 127.38447 L 16.950903 125.36444 z M 18.730123 125.36444 L 19.172473 125.36444 L 19.683553 126.85944 L 20.178097 125.36444 L 20.611145 125.36444 L 19.887675 127.38447 L 19.452043 127.38447 L 18.730123 125.36444 z M 20.806482 125.36444 L 21.214726 125.36444 L 21.214726 127.38447 L 20.806482 127.38447 L 20.806482 125.36444 z M 23.641451 125.36444 L 25.139034 125.36444 L 25.139034 125.70602 L 24.049178 125.70602 L 24.049178 126.15406 L 25.063586 126.15406 L 25.063586 126.4946 L 24.049178 126.4946 L 24.049178 127.04444 L 25.177791 127.04444 L 25.177791 127.38447 L 23.641451 127.38447 L 23.641451 125.36444 z M 26.306405 125.36444 L 27.052096 125.36444 C 27.220215 125.36444 27.348375 125.37748 27.436568 125.4032 C 27.555078 125.43811 27.656423 125.50012 27.740942 125.58923 C 27.825461 125.67835 27.889599 125.78733 27.933695 125.91686 C 27.977792 126.04548 27.999841 126.20459 27.999841 126.39384 C 27.999841 126.56012 27.97917 126.70344 27.93783 126.82378 C 27.887302 126.97077 27.815528 127.08992 27.721822 127.18087 C 27.651083 127.24977 27.555366 127.30351 27.435018 127.3421 C 27.344987 127.37058 27.224464 127.38447 27.0738 127.38447 L 26.306405 127.38447 L 26.306405 125.36444 z M 28.267525 125.36444 L 28.689205 125.36444 L 28.689205 125.70602 L 28.625643 126.08223 L 28.340389 126.08223 L 28.267525 125.70602 L 28.267525 125.36444 z M 29.59871 125.36444 L 30.029692 125.36444 L 30.838944 127.38447 L 30.395044 127.38447 L 30.218827 126.92559 L 29.411125 126.92559 L 29.24421 127.38447 L 28.811678 127.38447 L 29.59871 125.36444 z M 31.052368 125.36444 L 31.460095 125.36444 L 31.460095 126.45843 C 31.460095 126.63206 31.464976 126.74495 31.475081 126.79639 C 31.492536 126.87908 31.533878 126.94534 31.599105 126.99587 C 31.66525 127.04547 31.755456 127.07028 31.869373 127.07028 C 31.985127 127.07028 32.072576 127.04685 32.131372 127 C 32.190168 126.95223 32.225366 126.89423 32.237309 126.82533 C 32.249252 126.75643 32.255396 126.64205 32.255396 126.4822 L 32.255396 125.36444 L 32.663123 125.36444 L 32.663123 126.42536 C 32.663123 126.66789 32.652098 126.8394 32.63005 126.93954 C 32.608001 127.03968 32.567291 127.12437 32.507576 127.19327 C 32.448781 127.26217 32.3696 127.31729 32.270382 127.35863 C 32.171164 127.39906 32.041626 127.4191 31.881775 127.4191 C 31.688851 127.4191 31.542145 127.39705 31.442008 127.35295 C 31.342791 127.30793 31.264758 127.25006 31.206881 127.17932 C 31.149004 127.10766 31.110533 127.03261 31.092159 126.95452 C 31.065517 126.83877 31.052368 126.66789 31.052368 126.44189 L 31.052368 125.36444 z M 32.948376 125.36444 L 34.553963 125.36444 L 34.553963 125.70602 L 33.95555 125.70602 L 33.95555 127.38447 L 33.547823 127.38447 L 33.547823 125.70602 L 32.948376 125.70602 L 32.948376 125.36444 z M 36.955884 125.36444 L 37.566182 125.36444 L 37.932568 126.74265 L 38.295337 125.36444 L 38.907186 125.36444 L 38.907186 127.38447 L 38.527881 127.38447 L 38.527881 125.79439 L 38.126872 127.38447 L 37.734131 127.38447 L 37.334672 125.79439 L 37.334672 127.38447 L 36.955884 127.38447 L 36.955884 125.36444 z M 39.893689 125.36444 L 40.325187 125.36444 L 41.133923 127.38447 L 40.690023 127.38447 L 40.513806 126.92559 L 39.706104 126.92559 L 39.539705 127.38447 L 39.106657 127.38447 L 39.893689 125.36444 z M 40.995947 125.36444 L 42.601534 125.36444 L 42.601534 125.70602 L 42.003638 125.70602 L 42.003638 127.38447 L 41.595394 127.38447 L 41.595394 125.70602 L 40.995947 125.70602 L 40.995947 125.36444 z M 42.852165 125.36444 L 43.260409 125.36444 L 43.260409 127.38447 L 42.852165 127.38447 L 42.852165 125.36444 z M 45.84113 125.36444 L 46.249373 125.36444 L 46.249373 126.45843 C 46.249373 126.63206 46.254254 126.74495 46.26436 126.79639 C 46.281815 126.87908 46.323156 126.94534 46.388383 126.99587 C 46.454528 127.04547 46.544734 127.07028 46.658651 127.07028 C 46.774405 127.07028 46.861338 127.04685 46.920133 127 C 46.978929 126.95223 47.014644 126.89423 47.026587 126.82533 C 47.03853 126.75643 47.044157 126.64205 47.044157 126.4822 L 47.044157 125.36444 L 47.452401 125.36444 L 47.452401 126.42536 C 47.452401 126.66789 47.441376 126.8394 47.419328 126.93954 C 47.397279 127.03968 47.356052 127.12437 47.296338 127.19327 C 47.237542 127.26217 47.158878 127.31729 47.05966 127.35863 C 46.960442 127.39906 46.830904 127.4191 46.671053 127.4191 C 46.478129 127.4191 46.331423 127.39705 46.231287 127.35295 C 46.132069 127.30793 46.053519 127.25006 45.995642 127.17932 C 45.937765 127.10766 45.899811 127.03261 45.881437 126.95452 C 45.854795 126.83877 45.84113 126.66789 45.84113 126.44189 L 45.84113 125.36444 z M 47.882349 125.36444 L 49.379932 125.36444 L 49.379932 125.70602 L 48.290076 125.70602 L 48.290076 126.15406 L 49.304484 126.15406 L 49.304484 126.4946 L 48.290076 126.4946 L 48.290076 127.04444 L 49.418689 127.04444 L 49.418689 127.38447 L 47.882349 127.38447 L 47.882349 125.36444 z M 35.66449 125.67863 C 35.496371 125.67863 35.360689 125.73651 35.257796 125.85227 C 35.154904 125.9671 35.1038 126.14074 35.1038 126.37316 C 35.1038 126.60192 35.156282 126.77555 35.26193 126.89406 C 35.367579 127.01165 35.501883 127.07028 35.66449 127.07028 C 35.827097 127.07028 35.960137 127.01229 36.063949 126.89561 C 36.168679 126.77802 36.221045 126.60174 36.221045 126.36748 C 36.221045 126.13597 36.170057 125.9636 36.068083 125.84968 C 35.967027 125.73577 35.832609 125.67863 35.66449 125.67863 z M 44.546118 125.67863 C 44.379836 125.67863 44.244786 125.73651 44.140975 125.85227 C 44.038082 125.96802 43.986462 126.14229 43.986462 126.37472 C 43.986462 126.61082 44.038082 126.78732 44.140975 126.90492 C 44.244786 127.02159 44.375702 127.0801 44.533716 127.0801 C 44.592512 127.0801 44.647749 127.07045 44.700114 127.05116 C 44.617432 126.99696 44.533371 126.95487 44.447933 126.92455 L 44.562655 126.69149 C 44.696782 126.73743 44.824942 126.80633 44.947127 126.8982 C 44.999492 126.83665 45.038193 126.76223 45.063916 126.67496 C 45.090558 126.58768 45.104224 126.48771 45.104224 126.37472 C 45.104224 126.14137 45.052604 125.9671 44.949711 125.85227 C 44.846818 125.73651 44.7124 125.67863 44.546118 125.67863 z M 17.35863 125.70602 L 17.35863 126.21865 L 17.660421 126.21865 C 17.8561 126.21865 17.978633 126.21038 18.027323 126.19385 C 18.076014 126.17731 18.113968 126.149 18.141528 126.10858 C 18.169089 126.06816 18.182869 126.0178 18.182869 125.95717 C 18.182869 125.88919 18.164323 125.83418 18.127576 125.79284 C 18.091747 125.75058 18.040759 125.72428 17.974613 125.71326 C 17.941541 125.70866 17.84232 125.70602 17.676957 125.70602 L 17.35863 125.70602 z M 26.714132 125.70602 L 26.714132 127.04444 L 27.019023 127.04444 C 27.132939 127.04444 27.214992 127.03767 27.265519 127.0248 C 27.331664 127.00827 27.386155 126.98059 27.429333 126.94109 C 27.47343 126.90159 27.50926 126.83682 27.53682 126.74679 C 27.564381 126.65584 27.578162 126.53192 27.578162 126.37575 C 27.578162 126.21957 27.564381 126.09968 27.53682 126.01608 C 27.50926 125.93248 27.470674 125.8676 27.421065 125.82074 C 27.371456 125.77389 27.308697 125.7422 27.232446 125.72566 C 27.175488 125.7128 27.063865 125.70602 26.897583 125.70602 L 26.714132 125.70602 z M 29.80955 125.83573 L 29.536698 126.58556 L 30.087569 126.58556 L 29.80955 125.83573 z M 40.104529 125.83573 L 39.831677 126.58556 L 40.383065 126.58556 L 40.104529 125.83573 z " />
  </g>
</svg>
